/* XPM */
static char *floor[] = {
/* columns rows colors chars-per-pixel */
"32 32 2 1",
"  c #87F385",
". c #86F386",
/* pixels */
"................................",
"................................",
"................................",
"................................",
"................................",
"................................",
"................................",
"................................",
"................................",
"................................",
"................................",
"................................",
"................................",
"  .......................       ",
"    .....................       ",
"      ...................       ",
"         ...............        ",
"          .............         ",
"            ..........          ",
"               ....             ",
"                                ",
"                                ",
"                                ",
"                                ",
"                                ",
"                                ",
"                                ",
"                                ",
"                                ",
"                                ",
"                                ",
"                                "
};
