/* XPM */
static char *floor[] = {
/* columns rows colors chars-per-pixel */
"32 32 59 1",
"  c #003A00",
". c #003B00",
"X c #003C00",
"o c #003D00",
"O c #003E00",
"+ c #003F00",
"@ c #004000",
"# c #004200",
"$ c #004300",
"% c #004500",
"& c #004600",
"* c #004700",
"= c #004800",
"- c #004900",
"; c #004B00",
": c #004C00",
"> c #004E00",
", c #004F00",
"< c #005100",
"1 c #005200",
"2 c #005400",
"3 c #005500",
"4 c #005700",
"5 c #005800",
"6 c #005B00",
"7 c #005D00",
"8 c #005E00",
"9 c #006000",
"0 c #006100",
"q c #006300",
"w c #006600",
"e c #006700",
"r c #006800",
"t c #006900",
"y c #006A00",
"u c #006C00",
"i c #006D00",
"p c #006E00",
"a c #007000",
"s c #007100",
"d c #007200",
"f c #007400",
"g c #007500",
"h c #007600",
"j c #007700",
"k c #007800",
"l c #007900",
"z c #007B00",
"x c #007C00",
"c c #007E00",
"v c #008000",
"b c #008100",
"n c #008200",
"m c #008400",
"M c #008500",
"N c #008600",
"B c #008700",
"V c #008900",
"C c #008C00",
/* pixels */
"<ld<8qe4c48e55l4qe48,d&5eq;4Ole#",
"4dr&;4rrp8rdp&c4rd<e4r,<5r4,4nd4",
"dp4&#8rer58dd&d4qd;r8q<88ld<4d85",
"rp5q&8dqqd488;r;;deqqqerrcc<588q",
"dr4d85p8dp&;;,58,ddq4edppdlr8&<8",
"p,el,5eqqe4;58,5,8ne4dldl4p5e<p4",
"l;8qe,e8<&eq85,5qpdpeq8dr85<8,q4",
"d#8r4&r58;pdr554r8edd8qe4<;O8q4#",
"q&8qp,e<4edr8<5qNedrl8q<Op,,qq<#",
"<#rq4ee;8rq5ee5qd5drr8d&Odq<8r<4",
" ;r8ede,<qd#dl4;<qq58&d&;Nq,e,er",
"&448pdp8qer4cBq##d<p4;d#,r<<p<pn",
"4r&4dp5lq5Nqcdq&#dqrd,q;er4<N&dN",
"58<;qq&d58ddl8,&;ddcd,e854p5N,rc",
"<8r#q4#c8<p4q#58#dlep58l8pdqp rd",
"&8c<r,;lq<e;,&555ll8<eeN5qpl<&dr",
"O8d,e<;ne5q ;,88pe8<;nrd8d5p&;d8",
"O4q;4eee454O4eq4d845&ceereee,eq8",
",,84#ddq&54O4r8eq44&,N4qpl448e85",
"q848,ln44qq 8d<8<84&5l&rq8,8rr8r",
"5c<dqdc8p<c#q8#848d55p;d<5;454er",
"qd&rddl,nrcOp4q4<<rr4p8d<<,#;ed8",
";q,dprc<d8d&rqqq,8dd4q,c5e&,,dpe",
"48;eq8q4cd8#dpq8<rr5,r<epd#45rp,",
";<q5p,<<dq<&eN5qqdq488<84e#e8q4q",
"48r5q,48cq#;qp48er8&;r8;r5#5<,55",
"<,d858d5dq5<,4q;4ee<5<q;e&,,5<5c",
"&;85#8d4c4,55,<&5q5eq5q,n<45p&qd",
"&<55;,e#d,r554p 8e,8de5#r4rrd8qq",
",4e5445<r&r5pq8Ode <Nd#8rp5pr58&",
"q8d<5<4r55d,85d&pcO#Bq,r<drr,q44",
"p<n<5p,d&8d<p<8;cC #C4;NqN85&&q4"
};
