/* XPM */
static char *jewellery[] = {
/* columns rows colors chars-per-pixel */
"32 32 25 1",
"  c black",
". c #002000",
"X c #183000",
"o c #200000",
"O c #300000",
"+ c #200020",
"@ c #204000",
"# c #306000",
"$ c #400000",
"% c #402000",
"& c #403000",
"* c #600000",
"= c #603000",
"- c #604800",
"; c #408000",
": c #800000",
"> c #A00000",
", c #804000",
"< c #806000",
"1 c #A07800",
"2 c #C00000",
"3 c #E00000",
"4 c red",
"5 c #FFC0C0",
"6 c None",
/* pixels */
"66666666666666666666666666666666",
"66666666666666::<:::666666666666",
"66666666666:::>1<->>:>6666666666",
"66666666:2322231<-32222:66666666",
"6666666:2344441<-444443226666666",
"666666:24543321<-23334532:666666",
"66666:>455332:1<-:>334542>:66666",
"6666:>235432:o1<-o>235432>::6666",
"6666:>235433>::*::2334432>::6666",
"6666:>>23353322222344432>>:::666",
"666::>>23335444444443322>>:::666",
"666:::>>223333333333322>>::**666",
"666::>>>>>22223232222>>>::***$66",
"666::>:>>>>22222222>>>>:::**$$66",
"666*::::>>>>>>>>>>>>>>:::**$Oo66",
"666*::::::>:>>>>>>>>::::**$$Oo66",
"666*:*::::::::>:>:::::::**$$Oo66",
"6666*:*:::::::::::::::::**$OOo66",
"6666*:*:::::::::::::::::**$Oo666",
"6666**:::*:*::::::,::::**&$Oo666",
"66666**::*:*:*,::,,*,***&@&Oo666",
"66666*:*,:***,,::,<,***$&@Ooo666",
"666666*,,***:*<,:<;--*@%&XOo6666",
"666666**<*;***;*,-#-&$@%OX+o  66",
"6666666#;-#-=##-=-#-&&@XOX.    6",
"66666666#-@$$@#-=&@@&&XXXX.    6",
"66666666#@@@&@@@&@@@OXXXX.    66",
"666666666oXXOXXXXXXXOXXX.    666",
"6666666666...XXXXXXXXX..   66666",
"6666666666  XX...X.X..   6666666",
"666666666666          6666666666",
"66666666666666666666666666666666"
};
