/* XPM */
static char *jewellery[] = {
/* columns rows colors chars-per-pixel */
"32 32 43 1",
"  c black",
". c #300C00",
"X c #202020",
"o c gray13",
"O c gray19",
"+ c #000040",
"@ c #000060",
"# c #601800",
"$ c #68541F",
"% c gray25",
"& c gray27",
"* c #484848",
"= c #505050",
"- c #5B5B5B",
"; c #606060",
": c gray44",
"> c gray46",
", c #777777",
"< c #797979",
"1 c #7C7C7C",
"2 c navy",
"3 c #0000A0",
"4 c #0000C0",
"5 c #0000E0",
"6 c blue",
"7 c #A00000",
"8 c #807020",
"9 c #A05000",
"0 c #C06000",
"q c #E07000",
"w c #AA8834",
"e c #C0A040",
"r c #F2C44D",
"t c #F8E060",
"y c #808080",
"u c #818181",
"i c gray51",
"p c #848484",
"a c gray52",
"s c #9D9D9D",
"d c #A0A0A0",
"f c #C0C0C0",
"g c None",
/* pixels */
"gggggggggggggggggggggggggggggggg",
"gggggggggggggggggggggggggggggggg",
"gggggggggggggggggggggggggggggggg",
"gggggggggggggggggggggggggggggggg",
"gggggggggggggggggggggggggggggggg",
"gggggggggggggggggggggggggggggggg",
"gggggggggggggggggggggggggggggggg",
"gggggggggggggggggggggggggggggggg",
"gggggggggggggggggggggggggggggggg",
"gggggggggggggggggggggggggggggggg",
"gggggggggggggggggggggggggggggggg",
"gggggggggggggggggggggggggggggggg",
"gggggggggggggggggggggggggggggggg",
"gggggggggggggggggggggggggggggggg",
"gggggggggggggggggggggggggggggggg",
"gggggggggggggggggggggggggggggggg",
"gggggggggggggggggggggggggggggggg",
"gggggggggggggggggggggggggggggggg",
"gggggggggggggggggggggggggggggggg",
"gggggggggggggggggggggggggggggggg",
"gggggg466664gggggggggggggggggggg",
"ggggg33655522ggggggggggggggggggg",
"ggggt24@@@@4@egggggggggggggggggg",
"gggtt53@333@6rrggggggggggggggggg",
"ggrtte@+++++eerrgggggggggggggggg",
"ggrtggggggggggregggggggggggggggg",
"ggr$gggggggggg$egggggggggggggggg",
"ggw$$8gggggg88$egggggggggggggggg",
"gggw$888www888wggggggggggggggggg",
"ggggww88www8eegggggggggggggggggg",
"ggggggeerrregggggggggggggggggggg",
"gggggggggggggggggggggggggggggggg"
};
