/* XPM */
static char *player[] = {
/* columns rows colors chars-per-pixel */
"32 32 15 1",
"  c black",
". c #010010",
"X c #020018",
"o c #040020",
"O c #141038",
"+ c #1F1947",
"@ c #382D63",
"# c #514080",
"$ c #68529E",
"% c #2D8878",
"& c #826BB5",
"* c #987ED2",
"= c #B291EF",
"- c #E9CFF1",
"; c None",
/* pixels */
";;;;;     ;;;;;;   ;;;;;;;;;;;;;",
";;;; $$@+O  ;;  Ooo ;;;;;;;;;;;;",
";;; &&#$@+OO  O+@@+o ;;;;;;;;;;;",
";; *@$@*#*@##@+o...+   ;;;;;;;;;",
"; *$+#@#*#*+++....ooOOo ;;;;;;;;",
";; @+*#++#@$@++++++Oo.Oo;;;;;;;;",
";; $%-@%@$@+#$@+Oo.oOoo  ;;;;;;;",
"; @$*-$*@@#@@Oo.... o. oo ;;;;;;",
" #+#$**$@+@#@@@+ oOOOO  oo ;;;;;",
" # #@-=@O+++oooO@Oo.  O  o ;;;;;",
"; ; #+OO+@o ++OO + o.  ;; ;;;;;;",
";; ##@+OO@&#O   O ; o ;;;;;;;;;;",
";; $@@+@@#&&@ ;; ;; o ;;;;;;;;;;",
";; #+#@@#&&=& ;;;; X ;;;;  ;;;;;",
"; #@@###&#@&-O ;;;; ;;;; ++ ;;;;",
"; #O&++##@+&-# ;;;;;;;; + O+ ;;;",
"; @@===O@++#=& ;;;   ;;; ; +o ;;",
"; +o@==&$@+O== ;; O+@ ;;;; o+ ;;",
"; @OooO$&=-$$= ; O.XO@ ;;  oO ;;",
"; @@ OoO@&=-=& ;; .XO@   .oO ;;;",
";; =O OoOoO&=# ;; oXO+ ..oO ;;;;",
";; =@ +O+Oo      ..O+o..XO ;;; ;",
";; $= @O++Oooo.oOXOOo.++oX ;; O ",
";;; = @+O+OoOOoOoOoo.OooO ;; O ;",
";;; $=O@+@+Oo@+Ooo...ooX+.  .+ ;",
";;; -==@+@@++O@@+OOooo++OXX++ ;;",
";;; #-$ @@@@++++ooXXOO.XX... ;;;",
";;;; =  +@@+@@+OO++o.oOO++o ;;;;",
";;;;; ;; +@@+++++OO++@@+XX+ ;;;;",
";;;;;;;;;  +@@@OooOOOX...o+ ;;;;",
";;;;;;;;;;; X+++++      O+ ;;;;;",
";;;;;;;;;;;;      ;;;;;;  ;;;;;;"
};
