/* XPM */
static char *player[] = {
/* columns rows colors chars-per-pixel */
"32 32 97 2",
"   c black",
".  c gray1",
"X  c #090909",
"o  c gray4",
"O  c #0C0C0C",
"+  c gray5",
"@  c gray7",
"#  c #161414",
"$  c #1B1818",
"%  c #221D1D",
"&  c #292222",
"*  c #2D2626",
"=  c #2E2626",
"-  c #302828",
";  c #352D2D",
":  c #3A3232",
">  c #403737",
",  c #413939",
"<  c #4C4343",
"1  c #4F4545",
"2  c #514848",
"3  c #534A4A",
"4  c #554B4B",
"5  c #594F4F",
"6  c #5B5151",
"7  c #5E5353",
"8  c #665757",
"9  c #695959",
"0  c #6D5C5C",
"q  c #7A6363",
"w  c #7C6464",
"e  c #816666",
"r  c #836969",
"t  c #876A6A",
"y  c #886A6A",
"u  c #896A6A",
"i  c #8A6B6B",
"p  c #8C6C6C",
"a  c #8E6D6D",
"s  c #906E6E",
"d  c #937070",
"f  c #937171",
"g  c #957171",
"h  c #967272",
"j  c #977272",
"k  c #977373",
"l  c #987373",
"z  c #9C7474",
"x  c #9C7575",
"c  c #9D7575",
"v  c #9F7777",
"b  c #A17777",
"n  c #A17878",
"m  c #A27878",
"M  c #A37878",
"N  c #A37979",
"B  c #A47979",
"V  c #A57A7A",
"C  c #A67B7B",
"Z  c #A87C7C",
"A  c #A97C7C",
"S  c #AA7F7F",
"D  c #AB8080",
"F  c #AD8181",
"G  c #B08383",
"H  c #B18383",
"J  c #B18585",
"K  c #B28585",
"L  c #B28686",
"P  c #B38787",
"I  c #B48888",
"U  c #B68989",
"Y  c #B78989",
"T  c #B88A8A",
"R  c #B88C8C",
"E  c #B98C8C",
"W  c #BA8D8D",
"Q  c #BE8F8F",
"!  c #BE9090",
"~  c #BF9191",
"^  c #C09191",
"/  c #C09393",
"(  c #C19393",
")  c #C19494",
"_  c #C49595",
"`  c #C59696",
"'  c #C69797",
"]  c #C79898",
"[  c #C99B9B",
"{  c #CB9B9B",
"}  c #CC9D9D",
"|  c #D7A4A4",
" . c #DBA6A6",
".. c #E2AAAA",
"X. c #E7ACAC",
"o. c #FFC1C1",
"O. c None",
/* pixels */
"O.O.O.O.O.O.O.O.O.O.O.O.O.O.& $ & $ & O.O.O.O.O.O.O.O.O.O.O.O.O.",
"O.O.O.O.O.O.O.O.O.O.O.O.O.& $ R Q $ & $ O.O.O.O.O.O.O.O.O.O.O.O.",
"O.O.O.O.O.O.O.O.O.O.O.O.O.& ......R $ & O.O.O.O.O.O.O.O.O.O.O.O.",
"O.O.O.O.O.O.O.O.O.O.O.....& = ..= = $ ....O.O.O.O.O.O.O.O.O.O.O.",
"O.O.O.O.O.O.O.O.O.O.O.O.O.....o.R s ..& O.O.O.O.O.O.O.O.O.O.O.O.",
"O.O.O.O.O.O.O.O.O.O.O.O.O.& ..R R a $ & O.O.O.O.O.O.O.O.O.O.O.O.",
"O.O.O.O.O.O.O.O.O.O.O.O.O.& $ R s y $ & O.O.O.O.O.O.O.O.O.O.O.O.",
"O.O.O.O.O.O.O.O.O.O.O.X.} & $ 3 4 R & & } O.O.O.O.O.O.O.O.O.O.O.",
"O.O.O.O.O.O.O.O.O.O.X.} R & 3 X.3 R & R R X.O.O.O.O.O.O.O.O.O.O.",
"O.O.O.O.O.O.O.O.O.X.} R y R R 3 R y y R R } X.O.O.O.O.O.O.O.O.O.",
"O.O.O.O.O.O.O.O.O.} R y 0 } R X.R y y y y R } O.O.O.O.O.O.O.O.O.",
"O.O.O.O.O.O.O.O.R R y 3 0 } R 3 R y 3 3 y y R O.O.O.O.O.O.O.O.O.",
"O.O.O.O.O.O.O.O.R y 3 O.R } R 3 R y 3 O.4 y ..O.O.O.O.O.O.O.O.O.",
"O.O.O.O.O.O.O.O...y 4 O.R } R R R y 3 O.a g | O.O.O.O.O.O.O.O.O.",
"O.O.O.O.O.O.O.O. .g a O.x ' R R Y t 1 O.a l | O.O.O.O.O.O.O.O.O.",
"O.O.O.O.O.O.O.O.{ g y O.G ( U R D r 3 o a B ..O.O.O.O.O.O.O.O.O.",
"O.O.O.O.O.O.O.O. .x y 3 Z { B U U q t 1 . a B . . O.O.O.O.O.O.O.",
"O.O.O.O.O.O.O.O...l y 3 Z ' B y Y V t 3 . a B . . . O.O.O.O.O.O.",
"O.O.O.O.O.O.O.O.s l y 0 B ( B y R B y 3 | ..Z . . . O.O.O.O.O.O.",
"O.O.O.O.O.O.O.O.l ( { y x U B B R Y t 6 a a + . . . O.O.O.O.O.O.",
"O.O.O.O.O.O.O.O.O.g g O.y B x B B R t g + . . . . . . O.O.O.O.O.",
"O.O.O.O.O.O.O.O.O.O.O.B ( y , . . v f V . . . . . . . O.O.O.O.O.",
"O.O.O.O.O.O.O.O.O.O.O.Q { a : % . f ) R . . . . . . . O.O.O.O.O.",
"O.O.O.O.O.O.O.O.O.O.y y T < % % . ; F V t . . . . . . . O.O.O.O.",
"O.O.O.O.O.O.O.O.O.O.' v L 7 . .   & R L . . . . . . . . O.O.O.O.",
"O.O.O.O.O.O.O.O.O.O.O.Q T ; . . . ; G P @ . . . . . . O.O.O.O.O.",
"O.O.O.O.O.O.O.O.O.O.O.B F ; . . . ; C V . . . . . . . O.O.O.O.O.",
"O.O.O.O.O.O.O.O.O.O.x R Z   . . . . : ! 9 . . . . . O.O.O.O.O.O.",
"O.O.O.O.O.O.O.O.O.s Z B L # . . . . ; R L 8   . . O.O.O.O.O.O.O.",
"O.O.O.O.O.O.O.O.g D w v 9 = . . . . ; x T D 9   O.O.O.O.O.O.O.O.",
"O.O.O.O.O.O.O.O.; ; ; ; ; #   O.O.. ; ; 6 e ;   O.O.O.O.O.O.O.O.",
"O.O.O.O.O.O.O.O.  .         O.O.O.O.. . .     O.O.O.O.O.O.O.O.O."
};
