/* XPM */
static char *player[] = {
/* columns rows colors chars-per-pixel */
"32 32 15 1",
"  c black",
". c #010010",
"X c #020018",
"o c #040020",
"O c #141038",
"+ c #1F1947",
"@ c #382D63",
"# c #514080",
"$ c #68529E",
"% c #2D8878",
"& c #826BB5",
"* c #987ED2",
"= c #B291EF",
"- c #E9CFF1",
"; c None",
/* pixels */
";;;;;;;;;;;;;   ;;;;;;     ;;;;;",
";;;;;;;;;;;; ooO  ;;  O+@$$ ;;;;",
";;;;;;;;;;; o+@@+O  00+@$#&& ;;;",
";;;;;;;;;   +...o+@##@*#*@$@* ;;",
";;;;;;;; oOOoo....+++*#*#@#+$* ;",
";;;;;;;;oO.oO++++++@$@#++#*+@ ;;",
";;;;;;;  ooOo.oO+@$#+@$@%@-%$ ;;",
";;;;;; oo .o ....oO@@#@@*$-*$@ ;",
";;;;; oo  OOOOo +@@@#@+@$**$#+# ",
";;;;; o  O  .oO@Oooo+++O@=-@# # ",
";;;;;; ;;  .o + OO++ o@+OO+# ; ;",
";;;;;;;;;; o ; O   O#&@OO+@## ::",
";;;;;;;;;; o ;; ;; @&&#@@+@@$ ;;",
";;;;;  ;;;; X ;;;; &=&&#@@#+# ;;",
";;;; ++ ;;;; ;;;; O-&@#&###@@# ;",
";;; +O + ;;;;;;;; #-&+@##++&O# ;",
";; o+ ; ;;;   ;;; &=#++@O===@@ ;",
";; +o ;;;; @+O ;; ==O+@$&==@o+ ;",
";; Oo  ;; @OX.O ; =$$-=&$OooO@ ;",
";;; Oo.   @OX. ;; &=-=&@OoO @@ ;",
";;;; Oo.. +OXo ;; #=&OoOoO O= ;;",
"; ;;; OX..o+O..      oO+O+ @= ;;",
" O ;; Xo++.oOOXOo.oooO++O@ =$ ;;",
"; O ;; OooO.ooOoOoOOoO+O+@ = ;;;",
"; +.  .+Xoo...ooO+@oO+@+@O=$ ;;;",
";; ++XXO++oooOO+@@O++@@+@==- ;;;",
";;; ...XX.OOXXoo++++@@@@ $-# ;;;",
";;;; o++OOo.o++OO+@@+@@+  = ;;;;",
";;;; +XX+@@++OO+++++@@+ ;; ;;;;;",
";;;; +o...XOOOooO@@@+  ;;;;;;;;;",
";;;;; +O      +++++X ;;;;;;;;;;;",
";;;;;;  ;;;;;;      ;;;;;;;;;;;;"
};
