/* XPM */
static char *player[] = {
/* columns rows colors chars-per-pixel */
"32 32 20 1",
"  c black",
". c gray19",
"X c #200040",
"o c #300060",
"O c #600000",
"+ c gray25",
"@ c #505050",
"# c #7F5A48",
"$ c #400080",
"% c #5000A0",
"& c #A00000",
"* c #A5765E",
"= c #C00000",
"- c #E00000",
"; c red",
": c #CA8F72",
"> c #E5A282",
", c #FFB691",
"< c #FFD3AF",
"1 c None",
/* pixels */
"11111111111    11111111111111111",
"1111111111 @@++ 1111111111111111",
"1111111111 +.... 111111111111111",
"1111111111 <,,+. 111%11111111111",
"1111111111 *,*,+ 1111%%%%%%11111",
"1111111%%1 :<>,+ 11111111%%%1111",
"1111%%%111 ><,* 1111111111$$$$11",
"11%%%%111   ,*#  1111111$$$$$$11",
"11$$11111 >,,,>:>XX11o$$$$$$$111",
"1$$11111X>*:,%::,,XXXoo$$$$$1111",
"1$$$111oX<<%%<<<,,XXXXoo11111111",
"11$$$1oX<,,%,,,>:<ooooXX 1111111",
"11$$$ooX,>,%%%$:*$$oXXX ;  11111",
"111$ooXX>#:%%$$$$$$oXXX1 ;= 1111",
"11111oX,>#,,,$$$$><>X1111 ;= 111",
"11111oX>* ,,,,>: #,>Xo11o =& 111",
"1111oo>># <,<,:#  *>Xo11o ;& 111",
"1111oo*#X ,,,,:#  #*Xo1oo -& 111",
"1111oo>*X >,<>:O  #, Xooo;& 1111",
"1111o<>XX =>>;=O  ,, XXXXXO 1111",
"111o<,>XX ;-==-O  <> XXXXXXXXX11",
"111o,>XX =-=;==O  ,>oooXXXXXooo1",
"111XXXXX ;;-=-;O 1  o$oooXXooooo",
"1111XXX -=-=%==O 11$$$$o&   oooo",
"11XXXXX =-&=-%% 11%%$$=-O  $$$o1",
"11XooX1 =&=&-=%%%%%%%-==O  $$$o1",
"1oooo11 &=&=&-=-O   &=;&O $$$  1",
"1ooo$$$ =&=&=&%;==;-=%&O%%%    1",
"11o$$$$$$%%%%%&=--=&=&%%%      1",
"111$$$$$%%%&=&=&=&==OO        11",
"1111$$$11  OOOOOOOOO         111",
"11111111111                11111"
};
